<svg 
 xmlns="http://www.w3.org/2000/svg"
 xmlns:xlink="http://www.w3.org/1999/xlink"
 width="37px" height="39px">
<path fill-rule="evenodd"  opacity="0.8" fill="rgb(238, 238, 238)"
 d="M28.653,30.594 C28.520,30.636 28.364,30.658 28.194,30.658 C27.464,30.658 26.813,30.168 26.611,29.468 C26.488,29.053 26.537,28.611 26.750,28.225 C26.964,27.837 27.317,27.557 27.745,27.437 C31.248,26.426 33.695,23.181 33.695,19.548 C33.695,15.910 31.247,12.666 27.740,11.658 C27.314,11.532 26.965,11.253 26.752,10.871 C26.538,10.484 26.489,10.038 26.614,9.616 C26.813,8.920 27.463,8.432 28.196,8.432 C28.350,8.432 28.503,8.454 28.652,8.497 C33.565,9.911 36.997,14.456 36.997,19.548 C36.997,24.636 33.566,29.179 28.653,30.594 ZM23.767,38.517 C23.281,38.792 22.726,38.940 22.162,38.947 L22.161,38.947 L22.156,38.947 C21.563,38.947 20.976,38.781 20.455,38.468 C20.368,38.414 20.297,38.363 20.227,38.306 L9.712,28.682 L1.641,28.686 C1.211,28.686 0.800,28.518 0.485,28.214 C0.170,27.900 -0.009,27.474 -0.009,27.042 L-0.009,12.050 C-0.009,11.143 0.731,10.406 1.641,10.406 L9.752,10.406 L20.245,1.565 C20.308,1.508 20.393,1.448 20.472,1.402 C20.978,1.096 21.561,0.933 22.154,0.933 C22.714,0.933 23.274,1.083 23.772,1.365 C24.835,1.960 25.470,3.050 25.470,4.282 L25.470,35.599 C25.470,36.830 24.833,37.921 23.767,38.517 ZM8.705,13.694 L3.293,13.694 L3.293,25.396 L8.705,25.394 L8.705,13.694 ZM22.159,4.254 L12.003,12.812 L12.003,26.315 L22.158,35.607 L22.169,4.282 L22.159,4.254 Z"/>
</svg>