<svg 
 xmlns="http://www.w3.org/2000/svg"
 xmlns:xlink="http://www.w3.org/1999/xlink"
 width="45px" height="39px">
<path fill-rule="evenodd"  opacity="0.8" fill="rgb(238, 238, 238)"
 d="M33.976,34.914 C33.791,34.973 33.618,35.002 33.445,35.002 C32.740,35.002 32.114,34.554 31.888,33.886 C31.743,33.474 31.772,33.027 31.969,32.630 C32.163,32.240 32.497,31.945 32.911,31.801 C38.165,30.012 41.693,25.087 41.693,19.548 C41.693,14.004 38.158,9.081 32.895,7.296 C32.033,6.997 31.573,6.059 31.868,5.205 C32.093,4.541 32.720,4.093 33.427,4.093 C33.606,4.093 33.785,4.123 33.958,4.182 C40.553,6.420 44.984,12.594 44.984,19.548 C44.984,26.493 40.561,32.668 33.976,34.914 ZM37.876,19.548 C37.876,24.636 34.455,29.179 29.555,30.594 C29.422,30.636 29.267,30.659 29.098,30.659 C28.370,30.659 27.720,30.169 27.519,29.469 C27.396,29.053 27.445,28.611 27.658,28.225 C27.871,27.837 28.223,27.558 28.650,27.437 C32.143,26.426 34.584,23.182 34.584,19.548 C34.584,15.910 32.142,12.666 28.645,11.658 C28.220,11.532 27.872,11.254 27.660,10.871 C27.446,10.484 27.397,10.038 27.522,9.616 C27.720,8.920 28.369,8.432 29.100,8.432 C29.253,8.432 29.406,8.454 29.554,8.497 C34.454,9.911 37.876,14.456 37.876,19.548 ZM24.683,38.518 C24.199,38.792 23.645,38.941 23.082,38.947 L23.081,38.947 L23.076,38.947 C22.485,38.947 21.900,38.782 21.380,38.468 C21.294,38.414 21.223,38.364 21.153,38.306 L10.667,28.682 L2.619,28.686 C2.190,28.686 1.780,28.518 1.465,28.214 C1.152,27.900 0.973,27.474 0.973,27.043 L0.973,12.050 C0.973,11.143 1.711,10.406 2.619,10.406 L10.707,10.406 L21.170,1.565 C21.234,1.508 21.318,1.448 21.398,1.402 C21.902,1.097 22.483,0.934 23.074,0.934 C23.633,0.934 24.191,1.083 24.688,1.365 C25.748,1.960 26.381,3.050 26.381,4.282 L26.381,35.599 C26.381,36.830 25.746,37.921 24.683,38.518 ZM9.663,13.694 L4.265,13.694 L4.265,25.397 L9.663,25.394 L9.663,13.694 ZM23.079,4.254 L12.951,12.812 L12.951,26.315 L23.078,35.607 L23.089,4.282 L23.079,4.254 Z"/>
</svg>